<mxfile host="app.diagrams.net" modified="2024-04-01T09:45:35.233Z" agent="Mozilla/5.0 (Windows NT 10.0; Win64; x64) AppleWebKit/537.36 (KHTML, like Gecko) Chrome/123.0.0.0 Safari/537.36" etag="rMkYUTG9u48hm7-onjF3" version="24.2.1" type="device">
  <diagram id="C5RBs43oDa-KdzZeNtuy" name="Page-1">
    <mxGraphModel dx="821" dy="958" grid="1" gridSize="10" guides="1" tooltips="1" connect="1" arrows="1" fold="1" page="1" pageScale="1" pageWidth="827" pageHeight="1169" math="0" shadow="0">
      <root>
        <mxCell id="WIyWlLk6GJQsqaUBKTNV-0" />
        <mxCell id="WIyWlLk6GJQsqaUBKTNV-1" parent="WIyWlLk6GJQsqaUBKTNV-0" />
        <mxCell id="p_60gzE-SebcAsP0rnAJ-11" value="" style="edgeStyle=none;curved=1;rounded=0;orthogonalLoop=1;jettySize=auto;html=1;fontSize=12;startSize=8;endSize=8;exitX=0;exitY=0.5;exitDx=0;exitDy=0;" edge="1" parent="WIyWlLk6GJQsqaUBKTNV-1" source="WIyWlLk6GJQsqaUBKTNV-3" target="p_60gzE-SebcAsP0rnAJ-10">
          <mxGeometry relative="1" as="geometry" />
        </mxCell>
        <mxCell id="WIyWlLk6GJQsqaUBKTNV-3" value="스킬 사용" style="rounded=1;whiteSpace=wrap;html=1;fontSize=12;glass=0;strokeWidth=1;shadow=0;" parent="WIyWlLk6GJQsqaUBKTNV-1" vertex="1">
          <mxGeometry x="170" y="80" width="120" height="40" as="geometry" />
        </mxCell>
        <mxCell id="p_60gzE-SebcAsP0rnAJ-17" value="" style="edgeStyle=none;curved=1;rounded=0;orthogonalLoop=1;jettySize=auto;html=1;fontSize=12;startSize=8;endSize=8;" edge="1" parent="WIyWlLk6GJQsqaUBKTNV-1" source="p_60gzE-SebcAsP0rnAJ-10" target="p_60gzE-SebcAsP0rnAJ-16">
          <mxGeometry relative="1" as="geometry" />
        </mxCell>
        <mxCell id="p_60gzE-SebcAsP0rnAJ-10" value="q스킬 사용" style="rhombus;whiteSpace=wrap;html=1;rounded=1;glass=0;strokeWidth=1;shadow=0;" vertex="1" parent="WIyWlLk6GJQsqaUBKTNV-1">
          <mxGeometry x="45" y="210" width="90" height="90" as="geometry" />
        </mxCell>
        <mxCell id="p_60gzE-SebcAsP0rnAJ-19" value="" style="edgeStyle=none;curved=1;rounded=0;orthogonalLoop=1;jettySize=auto;html=1;fontSize=12;startSize=8;endSize=8;" edge="1" parent="WIyWlLk6GJQsqaUBKTNV-1" source="p_60gzE-SebcAsP0rnAJ-16" target="p_60gzE-SebcAsP0rnAJ-18">
          <mxGeometry relative="1" as="geometry" />
        </mxCell>
        <mxCell id="p_60gzE-SebcAsP0rnAJ-39" style="edgeStyle=none;curved=1;rounded=0;orthogonalLoop=1;jettySize=auto;html=1;exitX=1;exitY=0.5;exitDx=0;exitDy=0;fontSize=12;startSize=8;endSize=8;entryX=0;entryY=0.5;entryDx=0;entryDy=0;" edge="1" parent="WIyWlLk6GJQsqaUBKTNV-1" source="p_60gzE-SebcAsP0rnAJ-16" target="p_60gzE-SebcAsP0rnAJ-43">
          <mxGeometry relative="1" as="geometry">
            <mxPoint x="490" y="320" as="targetPoint" />
            <Array as="points">
              <mxPoint x="120" y="290" />
            </Array>
          </mxGeometry>
        </mxCell>
        <mxCell id="p_60gzE-SebcAsP0rnAJ-16" value="연꽃이 1개 이상인가?" style="rhombus;whiteSpace=wrap;html=1;rounded=1;glass=0;strokeWidth=1;shadow=0;" vertex="1" parent="WIyWlLk6GJQsqaUBKTNV-1">
          <mxGeometry x="45" y="360" width="90" height="90" as="geometry" />
        </mxCell>
        <mxCell id="p_60gzE-SebcAsP0rnAJ-21" value="" style="edgeStyle=none;curved=1;rounded=0;orthogonalLoop=1;jettySize=auto;html=1;fontSize=12;startSize=8;endSize=8;" edge="1" parent="WIyWlLk6GJQsqaUBKTNV-1" source="p_60gzE-SebcAsP0rnAJ-18" target="p_60gzE-SebcAsP0rnAJ-20">
          <mxGeometry relative="1" as="geometry" />
        </mxCell>
        <mxCell id="p_60gzE-SebcAsP0rnAJ-18" value="Q 스킬 사용" style="rounded=1;whiteSpace=wrap;html=1;glass=0;strokeWidth=1;shadow=0;" vertex="1" parent="WIyWlLk6GJQsqaUBKTNV-1">
          <mxGeometry x="30" y="525" width="120" height="60" as="geometry" />
        </mxCell>
        <mxCell id="p_60gzE-SebcAsP0rnAJ-46" value="" style="edgeStyle=none;curved=1;rounded=0;orthogonalLoop=1;jettySize=auto;html=1;fontSize=12;startSize=8;endSize=8;entryX=0;entryY=0;entryDx=0;entryDy=0;" edge="1" parent="WIyWlLk6GJQsqaUBKTNV-1" source="p_60gzE-SebcAsP0rnAJ-20" target="p_60gzE-SebcAsP0rnAJ-49">
          <mxGeometry relative="1" as="geometry">
            <mxPoint x="188.0000000000001" y="720" as="targetPoint" />
          </mxGeometry>
        </mxCell>
        <mxCell id="p_60gzE-SebcAsP0rnAJ-20" value="연꽃 1개 감소" style="rounded=1;whiteSpace=wrap;html=1;glass=0;strokeWidth=1;shadow=0;" vertex="1" parent="WIyWlLk6GJQsqaUBKTNV-1">
          <mxGeometry x="30" y="620" width="120" height="60" as="geometry" />
        </mxCell>
        <mxCell id="p_60gzE-SebcAsP0rnAJ-22" value="" style="edgeStyle=none;curved=1;rounded=0;orthogonalLoop=1;jettySize=auto;html=1;fontSize=12;startSize=8;endSize=8;exitX=0.5;exitY=1;exitDx=0;exitDy=0;" edge="1" parent="WIyWlLk6GJQsqaUBKTNV-1" target="p_60gzE-SebcAsP0rnAJ-24" source="WIyWlLk6GJQsqaUBKTNV-3">
          <mxGeometry relative="1" as="geometry">
            <mxPoint x="320" y="100" as="sourcePoint" />
          </mxGeometry>
        </mxCell>
        <mxCell id="p_60gzE-SebcAsP0rnAJ-23" value="" style="edgeStyle=none;curved=1;rounded=0;orthogonalLoop=1;jettySize=auto;html=1;fontSize=12;startSize=8;endSize=8;" edge="1" parent="WIyWlLk6GJQsqaUBKTNV-1" source="p_60gzE-SebcAsP0rnAJ-24" target="p_60gzE-SebcAsP0rnAJ-26">
          <mxGeometry relative="1" as="geometry" />
        </mxCell>
        <mxCell id="p_60gzE-SebcAsP0rnAJ-24" value="E스킬 사용" style="rhombus;whiteSpace=wrap;html=1;rounded=1;glass=0;strokeWidth=1;shadow=0;" vertex="1" parent="WIyWlLk6GJQsqaUBKTNV-1">
          <mxGeometry x="185" y="210" width="90" height="90" as="geometry" />
        </mxCell>
        <mxCell id="p_60gzE-SebcAsP0rnAJ-25" value="" style="edgeStyle=none;curved=1;rounded=0;orthogonalLoop=1;jettySize=auto;html=1;fontSize=12;startSize=8;endSize=8;" edge="1" parent="WIyWlLk6GJQsqaUBKTNV-1" source="p_60gzE-SebcAsP0rnAJ-26" target="p_60gzE-SebcAsP0rnAJ-28">
          <mxGeometry relative="1" as="geometry" />
        </mxCell>
        <mxCell id="p_60gzE-SebcAsP0rnAJ-40" style="edgeStyle=none;curved=1;rounded=0;orthogonalLoop=1;jettySize=auto;html=1;exitX=1;exitY=0.5;exitDx=0;exitDy=0;fontSize=12;startSize=8;endSize=8;" edge="1" parent="WIyWlLk6GJQsqaUBKTNV-1" source="p_60gzE-SebcAsP0rnAJ-26" target="p_60gzE-SebcAsP0rnAJ-43">
          <mxGeometry relative="1" as="geometry">
            <mxPoint x="490" y="320" as="targetPoint" />
            <Array as="points">
              <mxPoint x="275" y="290" />
            </Array>
          </mxGeometry>
        </mxCell>
        <mxCell id="p_60gzE-SebcAsP0rnAJ-26" value="연꽃이 3개 이상인가?" style="rhombus;whiteSpace=wrap;html=1;rounded=1;glass=0;strokeWidth=1;shadow=0;" vertex="1" parent="WIyWlLk6GJQsqaUBKTNV-1">
          <mxGeometry x="185" y="360" width="90" height="90" as="geometry" />
        </mxCell>
        <mxCell id="p_60gzE-SebcAsP0rnAJ-27" value="" style="edgeStyle=none;curved=1;rounded=0;orthogonalLoop=1;jettySize=auto;html=1;fontSize=12;startSize=8;endSize=8;" edge="1" parent="WIyWlLk6GJQsqaUBKTNV-1" source="p_60gzE-SebcAsP0rnAJ-28" target="p_60gzE-SebcAsP0rnAJ-29">
          <mxGeometry relative="1" as="geometry" />
        </mxCell>
        <mxCell id="p_60gzE-SebcAsP0rnAJ-28" value="E스킬 사용" style="rounded=1;whiteSpace=wrap;html=1;glass=0;strokeWidth=1;shadow=0;" vertex="1" parent="WIyWlLk6GJQsqaUBKTNV-1">
          <mxGeometry x="170" y="525" width="120" height="60" as="geometry" />
        </mxCell>
        <mxCell id="p_60gzE-SebcAsP0rnAJ-50" value="" style="edgeStyle=none;curved=1;rounded=0;orthogonalLoop=1;jettySize=auto;html=1;fontSize=12;startSize=8;endSize=8;" edge="1" parent="WIyWlLk6GJQsqaUBKTNV-1" source="p_60gzE-SebcAsP0rnAJ-29" target="p_60gzE-SebcAsP0rnAJ-49">
          <mxGeometry relative="1" as="geometry" />
        </mxCell>
        <mxCell id="p_60gzE-SebcAsP0rnAJ-29" value="연꽃 3개 감소" style="rounded=1;whiteSpace=wrap;html=1;glass=0;strokeWidth=1;shadow=0;" vertex="1" parent="WIyWlLk6GJQsqaUBKTNV-1">
          <mxGeometry x="170" y="620" width="120" height="60" as="geometry" />
        </mxCell>
        <mxCell id="p_60gzE-SebcAsP0rnAJ-30" value="" style="edgeStyle=none;curved=1;rounded=0;orthogonalLoop=1;jettySize=auto;html=1;fontSize=12;startSize=8;endSize=8;exitX=1;exitY=0.5;exitDx=0;exitDy=0;" edge="1" parent="WIyWlLk6GJQsqaUBKTNV-1" target="p_60gzE-SebcAsP0rnAJ-32" source="WIyWlLk6GJQsqaUBKTNV-3">
          <mxGeometry relative="1" as="geometry">
            <mxPoint x="290" y="100" as="sourcePoint" />
          </mxGeometry>
        </mxCell>
        <mxCell id="p_60gzE-SebcAsP0rnAJ-31" value="" style="edgeStyle=none;curved=1;rounded=0;orthogonalLoop=1;jettySize=auto;html=1;fontSize=12;startSize=8;endSize=8;" edge="1" parent="WIyWlLk6GJQsqaUBKTNV-1" source="p_60gzE-SebcAsP0rnAJ-32" target="p_60gzE-SebcAsP0rnAJ-34">
          <mxGeometry relative="1" as="geometry" />
        </mxCell>
        <mxCell id="p_60gzE-SebcAsP0rnAJ-32" value="R스킬 사용" style="rhombus;whiteSpace=wrap;html=1;rounded=1;glass=0;strokeWidth=1;shadow=0;" vertex="1" parent="WIyWlLk6GJQsqaUBKTNV-1">
          <mxGeometry x="325" y="210" width="90" height="90" as="geometry" />
        </mxCell>
        <mxCell id="p_60gzE-SebcAsP0rnAJ-33" value="" style="edgeStyle=none;curved=1;rounded=0;orthogonalLoop=1;jettySize=auto;html=1;fontSize=12;startSize=8;endSize=8;" edge="1" parent="WIyWlLk6GJQsqaUBKTNV-1" source="p_60gzE-SebcAsP0rnAJ-34" target="p_60gzE-SebcAsP0rnAJ-36">
          <mxGeometry relative="1" as="geometry" />
        </mxCell>
        <mxCell id="p_60gzE-SebcAsP0rnAJ-41" style="edgeStyle=none;curved=1;rounded=0;orthogonalLoop=1;jettySize=auto;html=1;exitX=1;exitY=0.5;exitDx=0;exitDy=0;fontSize=12;startSize=8;endSize=8;entryX=0;entryY=0.5;entryDx=0;entryDy=0;" edge="1" parent="WIyWlLk6GJQsqaUBKTNV-1" source="p_60gzE-SebcAsP0rnAJ-34" target="p_60gzE-SebcAsP0rnAJ-43">
          <mxGeometry relative="1" as="geometry">
            <mxPoint x="480" y="320" as="targetPoint" />
            <Array as="points">
              <mxPoint x="410" y="300" />
            </Array>
          </mxGeometry>
        </mxCell>
        <mxCell id="p_60gzE-SebcAsP0rnAJ-34" value="연꽃이 5개 이상인가?" style="rhombus;whiteSpace=wrap;html=1;rounded=1;glass=0;strokeWidth=1;shadow=0;" vertex="1" parent="WIyWlLk6GJQsqaUBKTNV-1">
          <mxGeometry x="325" y="360" width="90" height="90" as="geometry" />
        </mxCell>
        <mxCell id="p_60gzE-SebcAsP0rnAJ-35" value="" style="edgeStyle=none;curved=1;rounded=0;orthogonalLoop=1;jettySize=auto;html=1;fontSize=12;startSize=8;endSize=8;" edge="1" parent="WIyWlLk6GJQsqaUBKTNV-1" source="p_60gzE-SebcAsP0rnAJ-36" target="p_60gzE-SebcAsP0rnAJ-37">
          <mxGeometry relative="1" as="geometry" />
        </mxCell>
        <mxCell id="p_60gzE-SebcAsP0rnAJ-36" value="R 스킬 사용" style="rounded=1;whiteSpace=wrap;html=1;glass=0;strokeWidth=1;shadow=0;" vertex="1" parent="WIyWlLk6GJQsqaUBKTNV-1">
          <mxGeometry x="310" y="525" width="120" height="60" as="geometry" />
        </mxCell>
        <mxCell id="p_60gzE-SebcAsP0rnAJ-48" value="" style="edgeStyle=none;curved=1;rounded=0;orthogonalLoop=1;jettySize=auto;html=1;fontSize=12;startSize=8;endSize=8;entryX=1;entryY=0;entryDx=0;entryDy=0;" edge="1" parent="WIyWlLk6GJQsqaUBKTNV-1" source="p_60gzE-SebcAsP0rnAJ-37" target="p_60gzE-SebcAsP0rnAJ-49">
          <mxGeometry relative="1" as="geometry">
            <mxPoint x="272" y="720" as="targetPoint" />
          </mxGeometry>
        </mxCell>
        <mxCell id="p_60gzE-SebcAsP0rnAJ-37" value="연꽃 5개 감소" style="rounded=1;whiteSpace=wrap;html=1;glass=0;strokeWidth=1;shadow=0;" vertex="1" parent="WIyWlLk6GJQsqaUBKTNV-1">
          <mxGeometry x="310" y="620" width="120" height="60" as="geometry" />
        </mxCell>
        <mxCell id="p_60gzE-SebcAsP0rnAJ-44" value="" style="edgeStyle=none;curved=1;rounded=0;orthogonalLoop=1;jettySize=auto;html=1;fontSize=12;startSize=8;endSize=8;entryX=1;entryY=0.5;entryDx=0;entryDy=0;" edge="1" parent="WIyWlLk6GJQsqaUBKTNV-1" source="p_60gzE-SebcAsP0rnAJ-43" target="WIyWlLk6GJQsqaUBKTNV-3">
          <mxGeometry relative="1" as="geometry">
            <Array as="points">
              <mxPoint x="590" y="40" />
            </Array>
          </mxGeometry>
        </mxCell>
        <mxCell id="p_60gzE-SebcAsP0rnAJ-43" value="스킬 사용 불가" style="rounded=0;whiteSpace=wrap;html=1;" vertex="1" parent="WIyWlLk6GJQsqaUBKTNV-1">
          <mxGeometry x="500" y="290" width="120" height="60" as="geometry" />
        </mxCell>
        <mxCell id="p_60gzE-SebcAsP0rnAJ-52" value="" style="edgeStyle=none;curved=1;rounded=0;orthogonalLoop=1;jettySize=auto;html=1;fontSize=12;startSize=8;endSize=8;" edge="1" parent="WIyWlLk6GJQsqaUBKTNV-1" source="p_60gzE-SebcAsP0rnAJ-49" target="p_60gzE-SebcAsP0rnAJ-51">
          <mxGeometry relative="1" as="geometry" />
        </mxCell>
        <mxCell id="p_60gzE-SebcAsP0rnAJ-53" value="NO" style="edgeLabel;html=1;align=center;verticalAlign=middle;resizable=0;points=[];fontSize=12;" vertex="1" connectable="0" parent="p_60gzE-SebcAsP0rnAJ-52">
          <mxGeometry x="-0.057" y="-1" relative="1" as="geometry">
            <mxPoint as="offset" />
          </mxGeometry>
        </mxCell>
        <mxCell id="p_60gzE-SebcAsP0rnAJ-55" value="" style="edgeStyle=none;curved=1;rounded=0;orthogonalLoop=1;jettySize=auto;html=1;fontSize=12;startSize=8;endSize=8;" edge="1" parent="WIyWlLk6GJQsqaUBKTNV-1" source="p_60gzE-SebcAsP0rnAJ-49" target="p_60gzE-SebcAsP0rnAJ-54">
          <mxGeometry relative="1" as="geometry" />
        </mxCell>
        <mxCell id="p_60gzE-SebcAsP0rnAJ-56" value="YES" style="edgeLabel;html=1;align=center;verticalAlign=middle;resizable=0;points=[];fontSize=12;" vertex="1" connectable="0" parent="p_60gzE-SebcAsP0rnAJ-55">
          <mxGeometry x="-0.3647" relative="1" as="geometry">
            <mxPoint as="offset" />
          </mxGeometry>
        </mxCell>
        <mxCell id="p_60gzE-SebcAsP0rnAJ-49" value="공격 성공했는가?" style="rhombus;whiteSpace=wrap;html=1;rounded=1;glass=0;strokeWidth=1;shadow=0;" vertex="1" parent="WIyWlLk6GJQsqaUBKTNV-1">
          <mxGeometry x="170" y="720" width="120" height="110" as="geometry" />
        </mxCell>
        <mxCell id="p_60gzE-SebcAsP0rnAJ-51" value="IDEL" style="whiteSpace=wrap;html=1;rounded=1;glass=0;strokeWidth=1;shadow=0;" vertex="1" parent="WIyWlLk6GJQsqaUBKTNV-1">
          <mxGeometry x="354" y="745" width="120" height="60" as="geometry" />
        </mxCell>
        <mxCell id="p_60gzE-SebcAsP0rnAJ-54" value="사용 연꽃의 절반 반환" style="whiteSpace=wrap;html=1;rounded=1;glass=0;strokeWidth=1;shadow=0;" vertex="1" parent="WIyWlLk6GJQsqaUBKTNV-1">
          <mxGeometry x="170" y="870" width="120" height="60" as="geometry" />
        </mxCell>
      </root>
    </mxGraphModel>
  </diagram>
</mxfile>
